# xmcd CD database file
#
# Track frame offsets:
#	150
#	18922
#	30832
#	42671
#	57256
#	68737
#	83304
#	102080
#	115356
#	128043
#	141078
#	155546
#	173641
#	193405
#	208514
#	220453
#	233206
#	245358
#	257178
#	271711
#	286142
#	302546
#	316741
#	331093
#
# Disc length: 4555 seconds
#
# Revision: 0
# Processed by: cddbd v1.5.2PL0 Copyright (c) Steve Scherf et al.
# Submitted via: jetAudio 7
#
DISCID=4611c918
DTITLE=Mieczysław Fogg - Jesienne róże
DYEAR=1900
DGENRE=Oldies
TTITLE0=Jesienne roze
TTITLE1=Co nam zostalo z tamtych lat
TTITLE2=Bluzeczka zamszowa
TTITLE3=Pierwszy siwy wlos
TTITLE4=Serce matki
TTITLE5=Stary walc
TTITLE6=Piesn o matce
TTITLE7=Kiedy bedziesz zakochany
TTITLE8=W blekicie oczu twych
TTITLE9=Ja mam czas, ja poczekam
TTITLE10=Pamietam twoje oczy
TTITLE11=To ostatnia niedziela
TTITLE12=Zapomniana piosenka
TTITLE13=W malym kinie
TTITLE14=Francois
TTITLE15=Starszy pan
TTITLE16=Un Peu Demode
TTITLE17=Kochana
TTITLE18=Niebieskie roze
TTITLE19=Odpukaj pan
TTITLE20=Bo to sie zwykle tak zaczyna
TTITLE21=Piosenka nieaktualna
TTITLE22=Mlodym byc
TTITLE23=Piosenka o mojej Warszawie
EXTD=
EXTT0=
EXTT1=
EXTT2=
EXTT3=
EXTT4=
EXTT5=
EXTT6=
EXTT7=
EXTT8=
EXTT9=
EXTT10=
EXTT11=
EXTT12=
EXTT13=
EXTT14=
EXTT15=
EXTT16=
EXTT17=
EXTT18=
EXTT19=
EXTT20=
EXTT21=
EXTT22=
EXTT23=
PLAYORDER=
